<svg width="21" height="40" viewBox="0 0 21 40" fill="none" xmlns="http://www.w3.org/2000/svg">
    <mask id="path-1-inside-1_203_576" fill="white">
        <path fill-rule="evenodd" clip-rule="evenodd" d="M10.153 0C11.6281 0 12.9071 0.791934 13.5388 1.94982C14.7034 1.43789 16.1323 1.53845 17.2856 2.33444C19.0041 3.52058 19.4598 5.80179 18.3034 7.42965C18.0545 7.78018 17.751 8.07183 17.411 8.30187L17.4119 8.30249L17.3997 8.30945C17.2589 8.40389 17.112 8.48782 16.96 8.56104L10.3115 12.3654L10.3376 12.5095L10.1987 12.43L10.0596 12.5095L10.0857 12.3653L3.43811 8.56151C3.28551 8.48803 3.13791 8.40374 2.99657 8.30885L2.9853 8.30241L2.98614 8.30183C2.64612 8.0718 2.34271 7.78016 2.09373 7.42966C0.937393 5.80179 1.39312 3.52059 3.11162 2.33444C4.24061 1.55519 5.63375 1.44243 6.78456 1.91833C7.42209 0.7776 8.6913 0 10.153 0Z"/>
    </mask>
    <path fill-rule="evenodd" clip-rule="evenodd" d="M10.153 0C11.6281 0 12.9071 0.791934 13.5388 1.94982C14.7034 1.43789 16.1323 1.53845 17.2856 2.33444C19.0041 3.52058 19.4598 5.80179 18.3034 7.42965C18.0545 7.78018 17.751 8.07183 17.411 8.30187L17.4119 8.30249L17.3997 8.30945C17.2589 8.40389 17.112 8.48782 16.96 8.56104L10.3115 12.3654L10.3376 12.5095L10.1987 12.43L10.0596 12.5095L10.0857 12.3653L3.43811 8.56151C3.28551 8.48803 3.13791 8.40374 2.99657 8.30885L2.9853 8.30241L2.98614 8.30183C2.64612 8.0718 2.34271 7.78016 2.09373 7.42966C0.937393 5.80179 1.39312 3.52059 3.11162 2.33444C4.24061 1.55519 5.63375 1.44243 6.78456 1.91833C7.42209 0.7776 8.6913 0 10.153 0Z" fill="#1BB102"/>
    <path d="M13.5388 1.94982L12.6609 2.42872L13.1006 3.23476L13.9412 2.86529L13.5388 1.94982ZM17.2856 2.33444L16.7175 3.15744L17.2856 2.33444ZM18.3034 7.42965L19.1187 8.00876L19.1187 8.00876L18.3034 7.42965ZM17.411 8.30187L16.8507 7.47359L15.6385 8.29358L16.8429 9.12487L17.411 8.30187ZM17.4119 8.30249L17.9085 9.17044L19.287 8.38164L17.9799 7.47949L17.4119 8.30249ZM17.3997 8.30945L16.9031 7.44151L16.8721 7.45919L16.8426 7.47903L17.3997 8.30945ZM16.96 8.56104L16.5259 7.66019L16.4941 7.67553L16.4634 7.69309L16.96 8.56104ZM10.3115 12.3654L9.81482 11.4975L9.20143 11.8485L9.32752 12.5438L10.3115 12.3654ZM10.3376 12.5095L9.84095 13.3774L11.7047 14.4439L11.3215 12.331L10.3376 12.5095ZM10.1987 12.43L10.6953 11.562L10.1987 11.2778L9.70202 11.562L10.1987 12.43ZM10.0596 12.5095L9.07564 12.3311L8.69251 14.4439L10.5562 13.3775L10.0596 12.5095ZM10.0857 12.3653L11.0697 12.5438L11.1958 11.8484L10.5824 11.4974L10.0857 12.3653ZM3.43811 8.56151L3.93476 7.69356L3.90396 7.67593L3.87198 7.66053L3.43811 8.56151ZM2.99657 8.30885L3.55395 7.4786L3.52426 7.45867L3.49322 7.44091L2.99657 8.30885ZM2.9853 8.30241L2.41714 7.47949L1.1104 8.38169L2.48864 9.17035L2.9853 8.30241ZM2.98614 8.30183L3.5543 9.12475L4.75838 8.29343L3.54648 7.47356L2.98614 8.30183ZM2.09373 7.42966L1.27848 8.00876L1.27848 8.00876L2.09373 7.42966ZM3.11162 2.33444L3.67967 3.15744L3.67967 3.15744L3.11162 2.33444ZM6.78456 1.91833L6.40241 2.84243L7.22384 3.18212L7.65749 2.40619L6.78456 1.91833ZM14.4167 1.47093C13.6066 -0.0140852 11.9872 -1 10.153 -1V1C11.2689 1 12.2077 1.59795 12.6609 2.42872L14.4167 1.47093ZM17.8536 1.51145C16.4129 0.517042 14.6165 0.383755 13.1364 1.03436L13.9412 2.86529C14.7904 2.49202 15.8517 2.55985 16.7175 3.15744L17.8536 1.51145ZM19.1187 8.00876C20.6226 5.89166 19.9952 2.9896 17.8536 1.51145L16.7175 3.15744C18.0129 4.05157 18.297 5.71192 17.4882 6.85055L19.1187 8.00876ZM17.9713 9.13014C18.4081 8.83463 18.7987 8.4593 19.1187 8.00876L17.4882 6.85055C17.3102 7.10106 17.0939 7.30903 16.8507 7.47359L17.9713 9.13014ZM16.8429 9.12487L16.8438 9.12549L17.9799 7.47949L17.979 7.47886L16.8429 9.12487ZM16.9152 7.43455L16.9031 7.44151L17.8964 9.1774L17.9085 9.17044L16.9152 7.43455ZM17.3942 9.46188C17.5881 9.36842 17.7763 9.26104 17.9568 9.13988L16.8426 7.47903C16.7416 7.54675 16.6358 7.60722 16.5259 7.66019L17.3942 9.46188ZM16.4634 7.69309L9.81482 11.4975L10.8081 13.2334L17.4567 9.42899L16.4634 7.69309ZM11.3215 12.331L11.2954 12.187L9.32752 12.5438L9.35364 12.6879L11.3215 12.331ZM9.70201 13.2979L9.84095 13.3774L10.8342 11.6415L10.6953 11.562L9.70201 13.2979ZM9.70202 11.562L9.56294 11.6416L10.5562 13.3775L10.6953 13.2979L9.70202 11.562ZM11.0435 12.688L11.0697 12.5438L9.10178 12.1869L9.07564 12.3311L11.0435 12.688ZM2.94146 9.42946L9.58909 13.2333L10.5824 11.4974L3.93476 7.69356L2.94146 9.42946ZM2.43918 9.13911C2.62051 9.26085 2.80945 9.36868 3.00425 9.46249L3.87198 7.66053C3.76157 7.60737 3.6553 7.54664 3.55395 7.4786L2.43918 9.13911ZM2.48864 9.17035L2.49991 9.1768L3.49322 7.44091L3.48196 7.43446L2.48864 9.17035ZM2.41798 7.47891L2.41714 7.47949L3.55346 9.12533L3.5543 9.12475L2.41798 7.47891ZM1.27848 8.00876C1.59849 8.45928 1.989 8.83459 2.42581 9.13009L3.54648 7.47356C3.30324 7.30901 3.08692 7.10105 2.90898 6.85055L1.27848 8.00876ZM2.54357 1.51145C0.401998 2.9896 -0.225383 5.89166 1.27848 8.00876L2.90898 6.85055C2.10017 5.71192 2.38424 4.05157 3.67967 3.15744L2.54357 1.51145ZM7.16671 0.994233C5.7053 0.389886 3.95414 0.537847 2.54357 1.51145L3.67967 3.15744C4.52708 2.57254 5.56219 2.49497 6.40241 2.84243L7.16671 0.994233ZM10.153 -1C8.33527 -1 6.72892 -0.0318781 5.91164 1.43048L7.65749 2.40619C8.11527 1.58708 9.04734 1 10.153 1V-1Z" fill="black" mask="url(#path-1-inside-1_203_576)"/>
    <path d="M19.9006 23.8813C19.9006 28.0213 18.7955 31.7464 17.0353 34.4217C15.2723 37.1011 12.8935 38.6764 10.3368 38.6764C7.77998 38.6764 5.40122 37.1011 3.63825 34.4217C1.87798 31.7464 0.772926 28.0213 0.772926 23.8813C0.772926 19.7413 1.87798 16.0161 3.63825 13.3409C5.40122 10.6615 7.77998 9.08621 10.3368 9.08621C12.8935 9.08621 15.2723 10.6615 17.0353 13.3409C18.7955 16.0161 19.9006 19.7413 19.9006 23.8813Z" fill="#E4755C" stroke="black"/>
    <path fill-rule="evenodd" clip-rule="evenodd" d="M10.0648 24.1496H5.16885V23.1496H10.0648V24.1496Z" fill="black"/>
    <path fill-rule="evenodd" clip-rule="evenodd" d="M7.3448 31.1263H4.62485V30.1263H7.3448V31.1263Z" fill="black"/>
    <path fill-rule="evenodd" clip-rule="evenodd" d="M17.6806 29.5163H14.4167V28.5163H17.6806V29.5163Z" fill="black"/>
    <path fill-rule="evenodd" clip-rule="evenodd" d="M10.0648 15.5629H5.16885V14.5629H10.0648V15.5629Z" fill="black"/>
    <path fill-rule="evenodd" clip-rule="evenodd" d="M19.3126 19.8563H15.5047V18.8563H19.3126V19.8563Z" fill="black"/>
</svg>
